<svg id="avatar" width="300" height="320" viewBox="0 0 300 320" xmlns="http://www.w3.org/2000/svg" role="img" aria-label="Avatar">
    <!-- Cuello -->
    <rect x="110" y="200" width="44" height="20" fill="#b88961" id="neck"/>
    
    <!-- Cuerpo / uniforme -->
    <path id="body" fill="#507a95" d="M 78 239 Q 85 220 119 220 Q 133 220 135 221 Q 137 220 151 220 Q 180 220 185 236 L 196 263 q 18 46 -56 48 Q 61 311 71 264 Z"/>
    <path id="collar" fill="#2980b9" d="M119 220 Q127 230 135 235 Q143 230 151 220 Z"/>
    <circle cx="135" cy="250" r="2" fill="white"/>
    <circle cx="135" cy="265" r="2" fill="white"/>
    <circle cx="135" cy="280" r="2" fill="white"/>

    <!-- Brazos -->
    <!-- Brazo Izquierdo -->
    <path id="arm-left" fill="#b88961" d="M 279.9132 140.744 C 279.3288 140.5375 278.6177 140.5193 277.9894 140.6933 C 277.3486 140.8736 276.6333 141.3312 275.9457 141.9987 C 275.0314 142.8871 270.4405 148.1435 267.5251 151.6384 C 264.7168 155.0103 260.8705 159.8441 259.9387 161.169 C 258.8572 162.7142 258.1615 163.4582 257.452 163.8199 C 257.0096 164.0471 256.6542 164.108 256.2461 164.0257 C 255.2262 163.8158 254.6878 162.6389 254.8211 160.8846 C 254.8738 160.1527 255.2145 157.9453 255.5223 156.2872 C 256.302 152.1321 257.3745 148.2588 258.9028 144.0804 C 259.3521 142.8648 259.4803 142.4787 259.6319 141.9348 C 259.9531 140.7535 260.0345 139.7766 259.8864 138.8612 C 259.7512 137.9938 259.2649 137.0861 258.5688 136.409 C 258.3604 136.2075 258.2932 136.1597 257.8616 135.915 C 257.4557 135.6807 257.3537 135.6308 257.1504 135.5766 C 256.1767 135.3256 255.1885 135.6076 254.4725 136.3399 C 254.1873 136.6308 254.0093 136.8844 253.7157 137.432 C 253.3127 138.1691 253.0525 138.9165 252.7945 140.0666 C 251.634 145.2016 250.809 148.5368 249.6639 152.7155 C 248.8292 155.7472 247.5816 159.9705 247.2904 160.7406 C 246.7672 162.139 245.7487 162.6921 244.2981 162.3688 C 243.4554 162.18 242.5042 161.6398 241.7844 160.9491 C 240.7288 159.9337 239.7734 158.5026 239.0646 156.8709 C 238.3682 155.2646 237.9015 153.651 237.2447 150.57 C 236.5029 147.097 236.3282 146.3918 236.0424 145.7306 C 235.6602 144.8379 235.266 144.3487 234.5949 143.9251 C 234.2123 143.6817 233.9492 143.5749 233.5701 143.5049 C 233.0816 143.4213 232.5593 143.5212 232.171 143.7797 C 231.8318 144.0078 231.7004 144.1574 231.4757 144.5465 C 231.0392 145.3183 230.9029 146.2184 230.9901 147.7392 C 231.1043 149.6274 231.569 151.6818 232.4865 154.327 C 232.6765 154.8652 232.89 155.4485 233.9179 158.2071 C 234.9354 160.937 235.4713 162.7665 235.7809 164.5194 C 236.3078 167.5209 236.0177 170.3124 234.7955 173.9684 C 234.4708 174.9447 234.0448 176.0654 233.2819 177.9885 C 232.2725 180.518 231.8728 181.6088 231.4617 182.9457 C 230.5467 185.9446 230.2845 188.477 230.6474 190.8561 C 230.7575 191.5873 231.1011 192.7735 231.3665 193.3372 L 231.404 193.4129 L 230.9863 194.0739 C 228.1036 198.598 224.6443 203.5741 214.41 217.9177 C 206.3292 229.2421 203.1263 233.7663 199.2682 239.2925 C 192.2634 249.3392 186.7995 257.5061 182.4106 264.4985 C 180.6241 267.3506 179.665 268.9259 177.9899 271.7882 C 175.1933 276.5695 173.34 280.0687 171.8162 283.4424 C 171.6508 283.807 171.4966 284.16 171.4701 284.2214 L 171.4246 284.3394 L 170 292 C 169 310 187.3333 302.3333 190 304 C 195.3857 298.1734 198.0824 299.7213 198.1029 299.7015 C 198.1194 299.6885 198.5111 299.1975 198.9682 298.6089 C 202.2218 294.4658 205.179 290.2734 208.0038 285.8105 C 209.1719 283.959 209.6264 283.211 210.9465 280.9556 C 214.659 274.6192 217.8639 268.3416 221.5654 260.1179 C 223.4141 256.0252 224.6327 253.188 228.4572 244.1106 C 232.2558 235.086 233.7906 231.5292 235.6685 227.4173 C 238.2681 221.7193 240.275 217.6729 243.0603 212.4971 C 243.712 211.2901 246.7184 206.0751 247.3616 205.0392 L 247.7647 204.3878 L 248.1058 204.3908 C 249.0936 204.4064 250.2302 204.2191 251.3903 203.8424 C 252.2686 203.5556 253.0826 203.2317 254.6667 202.527 C 257.7718 201.1488 260.2602 200.2762 263.3749 199.4673 C 264.8932 199.0719 266.5722 198.7107 269.2282 198.1963 C 272.7638 197.5178 275.0237 197.3927 276.9053 197.7664 C 277.4693 197.8755 277.9178 198.0126 278.8892 198.3615 C 280.1909 198.8334 280.7407 198.9749 281.4154 199.0171 C 282.4055 199.0835 283.4041 198.7445 283.9024 198.1706 C 283.9793 198.0842 284.091 197.9142 284.1824 197.7324 C 284.3109 197.4863 284.3423 197.4007 284.3718 197.2012 C 284.4218 196.8647 284.3932 196.5235 284.2816 196.1388 C 284.0811 195.4547 283.716 194.8605 282.9756 194.018 C 281.9386 192.8375 280.8644 191.87 279.695 191.0595 C 279.1622 190.6933 277.9152 190.0094 277.3788 189.7899 C 275.7509 189.1252 274.1847 188.8614 272.5088 188.9674 C 272.3013 188.9829 270.7433 189.1659 269.0456 189.372 C 267.3459 189.5815 265.7845 189.7625 265.579 189.7747 C 265.0818 189.8079 264.6734 189.7886 264.2687 189.7083 C 263.9802 189.6455 263.8926 189.6175 263.6297 189.4792 C 263.3532 189.3331 263.303 189.2951 263.1467 189.1282 C 262.7639 188.7132 262.6248 188.1728 262.74 187.5357 C 262.8256 187.0438 262.9502 186.6873 263.3004 185.9558 C 265.2627 181.8069 268.4417 177.6523 272.9427 173.3408 C 275.2268 171.1503 277.2905 169.3648 282.0542 165.4576 C 286.282 161.9942 287.9687 160.5729 288.629 159.9212 C 289.3488 159.2136 289.8182 158.4788 290.0162 157.7451 C 290.2798 156.7652 290.066 155.8073 289.4447 155.196 C 289.2498 155.0023 288.783 154.7327 288.5076 154.655 C 287.6487 154.4161 286.5707 154.6192 285.474 155.2219 C 284.7464 155.6227 284.7775 155.6001 279.7853 159.4656 C 277.223 161.4504 275.2618 162.9568 273.7494 164.0998 C 270.9165 166.2486 267.7249 168.5736 266.789 169.179 C 266.0645 169.6448 265.4903 169.7643 264.9001 169.5679 C 264.1361 169.3208 264.0867 168.4533 264.7562 167.2702 C 264.8871 167.0435 265.2252 166.5125 265.5149 166.0889 C 265.7993 165.6667 266.4743 164.6537 267.01 163.8353 C 268.6622 161.3251 269.4513 160.1614 270.2235 159.1052 C 270.6754 158.4866 270.9279 158.1587 275.0011 152.9552 C 278.97 147.8855 278.9963 147.8556 279.7024 146.8514 C 280.8633 145.2078 281.3097 144.3018 281.4294 143.3289 C 281.5318 142.5265 281.3078 141.7973 280.7994 141.2873 C 280.6229 141.1086 280.174 140.8314 279.9132 140.744 Z M 279.9132 140.744"/>

    <!-- Brazo Derecho -->
    <path id="arm-right" fill="#b88961" d="M 10.1934 146.6237 C 10.7778 146.4172 11.4889 146.399 12.1172 146.573 C 12.758 146.7533 13.4733 147.2109 14.161 147.8784 C 15.0752 148.7668 19.6661 154.0232 22.5815 157.5181 C 25.3898 160.8899 29.2361 165.7238 30.168 167.0487 C 31.2494 168.5939 31.9452 169.3379 32.6546 169.6996 C 33.097 169.9268 33.4524 169.9877 33.8605 169.9053 C 34.8805 169.6955 35.4188 168.5186 35.2855 166.7643 C 35.2328 166.0324 34.8921 163.825 34.5843 162.1668 C 33.8047 158.0117 32.7322 154.1385 31.2038 149.9601 C 30.7546 148.7445 30.6264 148.3584 30.4747 147.8145 C 30.1536 146.6332 30.0722 145.6563 30.2203 144.7409 C 30.3554 143.8735 30.8418 142.9658 31.5378 142.2886 C 31.7463 142.0872 31.8134 142.0394 32.245 141.7946 C 32.6509 141.5604 32.7529 141.5105 32.9562 141.4563 C 33.9299 141.2053 34.9181 141.4872 35.6341 142.2196 C 35.9194 142.5105 36.0973 142.7641 36.3909 143.3117 C 36.7939 144.0488 37.0541 144.7962 37.3121 145.9463 C 38.4727 151.0812 39.2976 154.4165 40.4427 158.5952 C 41.2774 161.6269 42.525 165.8502 42.8162 166.6203 C 43.3394 168.0187 44.358 168.5718 45.8085 168.2485 C 46.6512 168.0597 47.6024 167.5194 48.3223 166.8287 C 49.3778 165.8134 50.3332 164.3823 51.0421 162.7506 C 51.7385 161.1443 52.2051 159.5307 52.8619 156.4497 C 53.6037 152.9767 53.7784 152.2714 54.0643 151.6103 C 54.4464 150.7176 54.8406 150.2283 55.5118 149.8048 C 55.8943 149.5614 56.1574 149.4545 56.5365 149.3846 C 57.025 149.301 57.5473 149.4009 57.9357 149.6593 C 58.2748 149.8875 58.4062 150.0371 58.631 150.4261 C 59.0675 151.198 59.2037 152.0981 59.1165 153.6189 C 59.0023 155.5071 58.5376 157.5614 57.6201 160.2067 C 57.4301 160.7449 57.2167 161.3282 56.1887 164.0868 C 55.1712 166.8167 54.6353 168.6462 54.3257 170.3991 C 53.7988 173.4006 54.089 176.1921 55.3112 179.848 C 55.6359 180.8244 56.0618 181.9451 56.8248 183.8682 C 57.8342 186.3977 58.2338 187.4884 58.6449 188.8253 C 59.56 191.8243 59.8221 194.3567 59.4593 196.7358 C 59.3491 197.467 59.0055 198.6532 58.7401 199.2168 L 58.7026 199.2926 L 59.1204 199.9536 C 62.003 204.4777 65.4623 209.4538 75.6967 223.7973 C 83.7774 235.1218 86.9803 239.646 90.8384 245.1722 C 97.8432 255.2189 103.3072 263.3858 107.696 270.3781 C 109.4825 273.2303 110.4416 274.8056 112.1167 277.6678 C 114.9134 282.4492 116.7666 285.9484 118.2904 289.322 C 118.4558 289.6867 118.61 290.0396 118.6365 290.1011 L 118.682 290.2191 L 120.1066 297.8797 C 121.1066 315.8796 102.7733 308.213 100.1067 309.8797 C 94.7209 304.053 92.0243 305.601 92.0037 305.5812 C 91.9872 305.5681 91.5955 305.0772 91.1385 304.4886 C 87.8849 300.3454 84.9276 296.1531 82.1028 291.6902 C 80.9348 289.8386 80.4803 289.0907 79.1602 286.8353 C 75.4476 280.4989 72.2427 274.2213 68.5412 265.9976 C 66.6925 261.9049 65.4739 259.0677 61.6494 249.9903 C 57.8508 240.9657 56.316 237.4089 54.4381 233.2969 C 51.8385 227.599 49.8316 223.5526 47.0464 218.3768 C 46.3946 217.1698 43.3882 211.9548 42.7451 210.9189 L 42.342 210.2675 L 42.0008 210.2705 C 41.013 210.2861 39.8764 210.0988 38.7163 209.722 C 37.838 209.4353 37.024 209.1114 35.4399 208.4067 C 32.3349 207.0285 29.8464 206.1559 26.7317 205.347 C 25.2134 204.9516 23.5344 204.5904 20.8784 204.0759 C 17.3428 203.3975 15.0829 203.2724 13.2013 203.6461 C 12.6373 203.7552 12.1888 203.8923 11.2175 204.2411 C 9.9157 204.7131 9.3659 204.8545 8.6912 204.8968 C 7.7012 204.9632 6.7026 204.6242 6.2042 204.0503 C 6.1273 203.9638 6.0156 203.7939 5.9242 203.6121 C 5.7958 203.366 5.7643 203.2804 5.7349 203.0809 C 5.6848 202.7444 5.7134 202.4032 5.825 202.0185 C 6.0255 201.3344 6.3907 200.7402 7.131 199.8977 C 8.1681 198.7172 9.2422 197.7497 10.4116 196.9392 C 10.9444 196.5729 12.1914 195.8891 12.7278 195.6696 C 14.3557 195.0049 15.9219 194.741 17.5979 194.8471 C 17.8053 194.8625 19.3633 195.0456 21.061 195.2517 C 22.7608 195.4612 24.3221 195.6422 24.5277 195.6544 C 25.0248 195.6876 25.4332 195.6682 25.8379 195.588 C 26.1264 195.5251 26.2141 195.4972 26.4769 195.3589 C 26.7535 195.2128 26.8036 195.1748 26.96 195.0079 C 27.3427 194.5929 27.4818 194.0525 27.3666 193.4153 C 27.281 192.9235 27.1564 192.567 26.8062 191.8354 C 24.844 187.6866 21.6649 183.532 17.1639 179.2205 C 14.8799 177.03 12.8162 175.2445 8.0524 171.3372 C 3.8247 167.8739 2.1379 166.4526 1.4776 165.8008 C 0.7578 165.0933 0.2884 164.3585 0.0904 163.6248 C -0.1732 162.6448 0.0406 161.687 0.6619 161.0757 C 0.8568 160.882 1.3236 160.6124 1.599 160.5347 C 2.4579 160.2957 3.5359 160.4989 4.6326 161.1016 C 5.3602 161.5023 5.3291 161.4798 10.3213 165.3453 C 12.8836 167.3301 14.8448 168.8365 16.3572 169.9794 C 19.1901 172.1283 22.3817 174.4532 23.3176 175.0587 C 24.0421 175.5244 24.6164 175.644 25.2065 175.4476 C 25.9706 175.2005 26.0199 174.333 25.3504 173.1499 C 25.2195 172.9232 24.8815 172.3922 24.5917 171.9686 C 24.3073 171.5464 23.6324 170.5334 23.0966 169.715 C 21.4444 167.2048 20.6553 166.0411 19.8831 164.9849 C 19.4313 164.3663 19.1787 164.0384 15.1056 158.8349 C 11.1366 153.7652 11.1103 153.7352 10.4042 152.7311 C 9.2433 151.0875 8.797 150.1814 8.6772 149.2086 C 8.5749 148.4062 8.7988 147.677 9.3073 147.167 C 9.4837 146.9883 9.9326 146.7111 10.1934 146.6237 Z M 10.1934 146.6237"/>



    <!-- Orejas -->
    <path id="ear-left" fill="#b88961" d="M 64.4 126.4 C 39 110.2 31.8 135.4 51.6 162.4 C 66 169.6 67.8 153.4 66.8 135.2 Z"/>
    <path id="in-ear-left" fill="#e2bd9c" d="M 58 131.2 C 46.2 122.8 42.6 135.4 50.8 150.4 C 64.4 161.6 57.2 144 57.2 141.6 S 60.4 136.8 58.8 132 Z"/>
    <path id="ear-right" fill="#b88961" d="M 194.6 126.4 C 220 110.2 227.2 135.4 207.4 162.4 C 193 169.6 191.2 153.4 192.2 135.2 Z"/>
    <path id="in-ear-right" fill="#e2bd9c" d="M 201 131.2 C 212.8 122.8 216.4 135.4 208.2 150.4 C 194.6 161.6 201.8 144 201.8 141.6 S 198.6 136.8 200.2 132 Z"/>

    <!-- Cara -->
    <path id="face" fill="#b88961" d="M 58 101 Q 65 50 130 50 Q 189 51 200 97 L 200 115 q 1 100 -68 102 Q 63 215 58 115 Z"/>
    
    <!-- Pelo -->
    <path id="hair" fill="#2b4f33" d="M 60 90 Q 59 68 79 58 Q 95 31 124 45 Q 136 52 140 49 Q 160 37 173 51 Q 200 48 204 69 Q 231 91 207 120 Q 200 82 164 78 Q 154 66 142 67 Q 122 68 115 61 Q 116 71 94 74 Q 83 74 72 87 Q 73 103 56 119 Z"/>
    
    <!-- Ojos -->
    
    <!-- Boca -->
    <path id="lips" fill="#e2bd9c" d="M 96.8 173.4 C 104.5 176.2 109.4 174.1 117.1 172 C 126.2 170.6 132.5 177.6 143 171.3 C 150 171.3 152.8 175.5 168.9 174.8 C 160.5 177.6 161.2 176.9 152 178 C 142 179 120 182 107 177 Z M 103 177 C 116 182 122 182 127 182 C 133 183 137 182 146 181 C 148 181 155 180 163 177 C 154 186 152 185 146 186 C 137 187 132 189 116 185 Z"/>
    <path id="mouth" fill="#71310e" d="M 114 179 C 127 180 134 181 160 177 C 160 179 145 182 131 182 C 126 182 110 181 106 177 Z"/>
  <g id="eye-left-group" style="display: block;"><ellipse id="eye-left-white" cx="100" cy="140" rx="14" ry="10" fill="white" stroke="black" stroke-width="1"/><circle id="eye-left-iris" cx="100" cy="140" r="7" fill="black"/></g><g id="eye-right-group" style="display: none;"><ellipse id="eye-right-white" cx="160" cy="140" rx="14" ry="10" fill="white" stroke="black" stroke-width="1"/><circle id="eye-right-iris" cx="160" cy="140" r="7" fill="black"/></g><path id="eyebrow-left" stroke="black" stroke-width="3" fill="none" d="M90 120 Q100 120 110 120" style="display: block;"/><path id="eyebrow-right" stroke="black" stroke-width="3" fill="none" d="M150 120 Q160 120 170 120" style="display: block;"/><line id="eye-right-closed" x1="150" y1="140" x2="170" y2="140" stroke="black" stroke-width="3" style="display: block;"/></svg>