<svg id="avatar" width="264" height="280" viewBox="0 0 264 280" xmlns="http://www.w3.org/2000/svg" role="img" aria-label="Avatar">
    <!-- Cuello -->
    <rect x="110" y="200" width="44" height="20" fill="#f5cba7" id="neck"/>
    
    <!-- Cuerpo / uniforme -->
    <rect x="80" y="220" width="104" height="60" fill="#3498db" id="body" rx="10" ry="10"/>

    <!-- Brazos -->
    <rect x="50" y="220" width="20" height="50" fill="#f5cba7" id="arm-left" rx="10" ry="10"/>
    <rect x="194" y="220" width="20" height="50" fill="#f5cba7" id="arm-right" rx="10" ry="10"/>

    <!-- Orejas -->
    <circle cx="52" cy="140" r="10" fill="#f5cba7" id="ear-left"/>
    <circle cx="212" cy="140" r="10" fill="#f5cba7" id="ear-right"/>

    <!-- Cara -->
    <circle cx="132" cy="140" r="80" fill="#f5cba7" id="face"/>
    
    <!-- Pelo -->
    <path id="hair" fill="#2c3e50" d="M50 93 Q80 53, 110 63 Q140 33, 190 73 Q170 83, 150 93 Q180 93, 190 113 Q150 83, 110 93 Q70 103, 50 93 Z"/>
    
    <!-- Ojos -->
    
    <!-- Boca -->
    <path id="mouth" fill="none" stroke="#d64541" stroke-width="4" d="M90 180 Q130 200 170 180"/>
  <g id="eye-left-group" style="display: block;"><ellipse id="eye-left-white" cx="100" cy="140" rx="11" ry="8" fill="white" stroke="black" stroke-width="1"/><circle id="eye-left-iris" cx="100" cy="140" r="6" fill="black"/></g><g id="eye-right-group" style="display: block;"><ellipse id="eye-right-white" cx="160" cy="140" rx="11" ry="8" fill="white" stroke="black" stroke-width="1"/><circle id="eye-right-iris" cx="160" cy="140" r="6" fill="black"/></g><path id="eyebrow-left" stroke="black" stroke-width="3" fill="none" d="M90 115 Q100 130 110 125" style="display: block;"/><path id="eyebrow-right" stroke="black" stroke-width="3" fill="none" d="M150 125 Q160 130 170 115" style="display: block;"/><line id="eye-right-closed" x1="150" y1="140" x2="170" y2="140" stroke="black" stroke-width="3" style="display: none;"/></svg>